<svg xmlns="http://www.w3.org/2000/svg" data-name="Layer 1" viewBox="0 0 100 125" x="0px" y="0px"><title>expression icon</title><path d="M61.26,45l-.08-.31-.32-.05a45.68,45.68,0,0,0-8.08-.06l-.42,0,0,.42a7.47,7.47,0,0,0,.08,2.16A6.51,6.51,0,0,0,55,51.37a4.07,4.07,0,0,0,2.31.75,4,4,0,0,0,.69-.06,4.1,4.1,0,0,0,2.88-2.32,6.72,6.72,0,0,0,.51-4.3C61.33,45.29,61.3,45.14,61.26,45ZM60,49.29a3.15,3.15,0,0,1-2.18,1.79h0a3,3,0,0,1-2.25-.54A5.5,5.5,0,0,1,53.39,47a5.83,5.83,0,0,1-.11-1.44h.09l.52,0,.33,0,.54,0,.37,0h2.73a1.16,1.16,0,0,0-.15.52A1.13,1.13,0,1,0,60,46a1,1,0,0,0-.09-.42H60l.35,0v.09A5.72,5.72,0,0,1,60,49.29Z"/><path d="M45.55,44.77l-.39-.06a9.37,9.37,0,0,1-1.53-.37c-2-.67-4.7-.24-6.62.24l-.27.07-.09.28a5.25,5.25,0,0,0-.13.57,6.73,6.73,0,0,0,.53,4.24,4.1,4.1,0,0,0,2.88,2.32,3.79,3.79,0,0,0,.67.06c2.23,0,4.35-2.06,4.9-4.93h0a7.37,7.37,0,0,0,.09-2Zm-1,2.23c-.5,2.61-2.48,4.43-4.39,4.08a3.13,3.13,0,0,1-2.18-1.79,5.67,5.67,0,0,1-.43-3.61,1.42,1.42,0,0,1,0-.2l.12,0,.35-.07.29-.06.4-.08.32-.05.43-.06.36,0,.42-.05.39,0L41,45h.8c.16,0,.31,0,.47.06l.27,0a1.1,1.1,0,0,0-.43.86,1.12,1.12,0,1,0,2.24,0,1.15,1.15,0,0,0-.08-.41l.16,0,.15,0A6.39,6.39,0,0,1,44.51,47Z"/><path d="M68.05,49.35a3,3,0,0,0,.1,1.29A4.45,4.45,0,0,1,67.94,52a2.66,2.66,0,0,0,.56-1.36,3.69,3.69,0,0,1,.61.56.78.78,0,0,1,.16.81,2.4,2.4,0,0,1-.58.78c-.26.26-.55.48-.82.76a3.56,3.56,0,0,0,1.06-.46,1.8,1.8,0,0,0,.81-.92A1.08,1.08,0,0,0,69.38,51a2,2,0,0,0-.88-.41c-.08-.74,0-1.67.61-1.77a2.06,2.06,0,0,1,1.89,1,2.31,2.31,0,0,0-.68-1.08A1.6,1.6,0,0,0,69,48.31a1.1,1.1,0,0,0-.68.37A1.4,1.4,0,0,0,68.05,49.35Z"/><path d="M28.56,52a.81.81,0,0,1,.17-.81,3.61,3.61,0,0,1,.6-.56A2.74,2.74,0,0,0,29.89,52a4.16,4.16,0,0,1-.2-1.38,2.8,2.8,0,0,0,.09-1.29,1.31,1.31,0,0,0-.3-.67,1.1,1.1,0,0,0-.67-.37,1.63,1.63,0,0,0-1.3.42,2.48,2.48,0,0,0-.68,1.08,2.08,2.08,0,0,1,1.9-1c.64.1.68,1,.6,1.77a2.08,2.08,0,0,0-.88.41,1.08,1.08,0,0,0-.36,1.23,1.86,1.86,0,0,0,.82.92,3.45,3.45,0,0,0,1.06.46c-.28-.28-.57-.5-.82-.76A2.3,2.3,0,0,1,28.56,52Z"/><path d="M48.51,51.47A2.26,2.26,0,0,1,50,52a2.62,2.62,0,0,1,.77,1.13.55.55,0,0,1,0,.45.6.6,0,0,0,.3-.48,2.18,2.18,0,0,0,0-.57,2.28,2.28,0,0,0-.46-1.06,2.55,2.55,0,0,0-2.15-1,2.58,2.58,0,0,0-2.05,1.16,2,2,0,0,0-.1,2.16A2.37,2.37,0,0,1,47,52.12,2.23,2.23,0,0,1,48.51,51.47Z"/><path d="M74.59,21.53a.51.51,0,0,0-.66-.17c-.94.52-3.87.05-6-.47l4-3.61a1.65,1.65,0,0,0,.58-.56.5.5,0,0,0-.77-.62l-.5.46c-1.17.62-4.42,1.08-7.54,1.21L65.73,15a.51.51,0,0,0,0-.63.54.54,0,0,0-.62-.12c-1.31.68-7.87.64-13.66.6-4.31,0-8.38-.06-10.56.18-5.34.6-11.84,6.88-12.12,7.14a.55.55,0,0,0-.15.36v5.76l-3.85,5.37a.49.49,0,0,0,0,.51A30.62,30.62,0,0,1,27.42,47h0c-1.89.7-2.65,3.39-1.69,6,.8,2.17,2.56,3.6,4.23,3.6a2.7,2.7,0,0,0,1-.17,1.59,1.59,0,0,0,.64-.42c1.8,8.14,5.8,14.65,10.86,17.73a28,28,0,0,1-.07,7.51l1,.17a32.07,32.07,0,0,0,.16-7.08,12.05,12.05,0,0,0,11.29-.17,31.37,31.37,0,0,0,.14,7.25l1-.17a27.42,27.42,0,0,1,0-7.62l-.08,0c4.93-3.12,8.83-9.52,10.61-17.51a1.47,1.47,0,0,0,.56.34,2.63,2.63,0,0,0,1,.17c1.66,0,3.42-1.43,4.23-3.6,1-2.59.2-5.28-1.7-6a3.59,3.59,0,0,0-.35-.12c.09-2.92,2-14,2-14.08a.37.37,0,0,0,0-.18l-1.52-7.44,3.92-3A.5.5,0,0,0,74.59,21.53Zm-44,33.95c-1.38.5-3.13-.77-3.9-2.85s-.28-4.18,1.1-4.69c.83-.31,1.32-.35,1.63-.14s.72.87.81,2.79a12.56,12.56,0,0,0,.47,2.59C31.07,54.78,31.1,55.27,30.55,55.48ZM49,74.64A11.7,11.7,0,0,1,43.07,73h0c-6.73-3.93-11.56-14.39-11.56-26.64a44.55,44.55,0,0,1,.65-7.63A17.71,17.71,0,0,0,32.67,34l1.88-5.13,0-.06c.14-.16.71-.63,2.86-1.15,3.6-.88,12.82.74,12.92.76h.05L61.12,28a14.64,14.64,0,0,1,3.46,2.66c0,.92.9,6.47,1,7a44.31,44.31,0,0,1,.85,8.69C66.43,62,58.6,74.64,49,74.64Zm22.22-22c-.77,2.08-2.52,3.36-3.9,2.85-.56-.21-.52-.71-.11-2.3a12.56,12.56,0,0,0,.47-2.59c.08-1.92.48-2.58.8-2.79a.83.83,0,0,1,.49-.13,3.44,3.44,0,0,1,1.14.27C71.46,48.45,72,50.55,71.19,52.63ZM69.7,24.57a.49.49,0,0,0-.19.5l1.56,7.66c-.19,1.13-1.83,10.79-2,13.94A1.93,1.93,0,0,0,67.9,47a1.86,1.86,0,0,0-.49.48c0-.36,0-.73,0-1.1a44.65,44.65,0,0,0-.87-8.88c-.14-.73-1-6.05-1-6.83S63.37,28.17,61.51,27L61.38,27l-11,.42c-.85-.15-9.57-1.64-13.28-.73-2.12.52-3.3,1.1-3.58,1.79a.82.82,0,0,0-.07.41l-1.82,5v.11a16,16,0,0,1-.27,3.54h0c-.07.35-.14.7-.2,1.06s-.12.48-.19.74l.06,0a45.69,45.69,0,0,0-.54,7.07c0,.43,0,.85,0,1.27a2.19,2.19,0,0,0-.59-.65,2,2,0,0,0-1.52-.25A31.45,31.45,0,0,0,25.74,34l3.78-5.26a.52.52,0,0,0,.09-.29v-5.7c1-.95,6.81-6.21,11.38-6.72,2.12-.24,6.17-.21,10.45-.18a103.8,103.8,0,0,0,12.64-.32L62.25,18a.49.49,0,0,0,0,.53.51.51,0,0,0,.46.27,41.08,41.08,0,0,0,6.82-.67l-2.89,2.63a.53.53,0,0,0-.15.49.49.49,0,0,0,.35.36,25.55,25.55,0,0,0,5.53,1Z"/><path d="M40.42,39.57a10.54,10.54,0,0,1,1.81-.79,5.44,5.44,0,0,0-2,.45,5,5,0,0,0-1.71,1.16,6,6,0,0,0-1.16,1.7,5.48,5.48,0,0,0-.48,2,8.82,8.82,0,0,1,2-3.32A6.69,6.69,0,0,1,40.42,39.57Z"/><path d="M54.7,41.05a7.56,7.56,0,0,1,1.43-.95,10.74,10.74,0,0,1,1.64-.64,4.77,4.77,0,0,0-1.79.29,4.84,4.84,0,0,0-1.6.92,5.5,5.5,0,0,0-1.19,1.4,5.1,5.1,0,0,0-.67,1.68A9.8,9.8,0,0,1,54.7,41.05Z"/><path d="M44.18,40.44a5.9,5.9,0,0,1,.57,1.22,11.42,11.42,0,0,1,.38,1.3l.31,1.33a8.94,8.94,0,0,0-.12-1.37A7.85,7.85,0,0,0,45,41.57a5.4,5.4,0,0,0-.64-1.24,2.23,2.23,0,0,0-1.07-.87A2.76,2.76,0,0,1,44.18,40.44Z"/><path d="M59.91,40.54a2.34,2.34,0,0,0-1.07-.88,2.85,2.85,0,0,1,.91,1,6.74,6.74,0,0,1,.56,1.22,11.46,11.46,0,0,1,.39,1.3L61,44.5a10.69,10.69,0,0,0-.11-1.38,9.07,9.07,0,0,0-.34-1.34A5.6,5.6,0,0,0,59.91,40.54Z"/><path d="M46.15,34.81a1.36,1.36,0,0,0-.68-.68,3.65,3.65,0,0,0-1.81-.1,13.65,13.65,0,0,0-3.37.74,9.22,9.22,0,0,0-3,1.79,6.39,6.39,0,0,0-1.86,2.9,10.39,10.39,0,0,1,2.35-2.29,12.9,12.9,0,0,1,2.86-1.47,26.76,26.76,0,0,1,3.16-.9,3.84,3.84,0,0,1,1.52-.2,1.18,1.18,0,0,1,.91,1.09A1.49,1.49,0,0,0,46.15,34.81Z"/><path d="M60.78,37.31a27.36,27.36,0,0,0-3.56-1.44,19.49,19.49,0,0,0-3.74-.93,10.14,10.14,0,0,0,3.42,1.87A8.8,8.8,0,0,0,60.78,37.31Z"/><path d="M51.57,59.25a5.66,5.66,0,0,0-1.9.48,6.7,6.7,0,0,0-1.62,1.07,5.62,5.62,0,0,0-1.2,1.49c.6-.27,1.13-.57,1.66-.86s1-.56,1.58-.79a11.44,11.44,0,0,1,3.39-1A3.33,3.33,0,0,0,51.57,59.25Z"/><text x="0" y="115" fill="#000000" font-size="5px" font-weight="bold" font-family="'Helvetica Neue', Helvetica, Arial-Unicode, Arial, Sans-serif">Created by Ryan Safana</text><text x="0" y="120" fill="#000000" font-size="5px" font-weight="bold" font-family="'Helvetica Neue', Helvetica, Arial-Unicode, Arial, Sans-serif">from the Noun Project</text></svg>