<?xml version="1.0" standalone="no"?>
<!DOCTYPE svg PUBLIC "-//W3C//DTD SVG 20010904//EN"
 "http://www.w3.org/TR/2001/REC-SVG-20010904/DTD/svg10.dtd">
<svg version="1.0" xmlns="http://www.w3.org/2000/svg"
 width="1024.000000pt" height="1024.000000pt" viewBox="0 0 1024.000000 1024.000000"
 preserveAspectRatio="xMidYMid meet">

<g transform="translate(0.000000,1024.000000) scale(0.100000,-0.100000)"
fill="#000000" stroke="none">
<path d="M4730 10230 c0 -5 5 -10 11 -10 5 0 7 5 4 10 -3 6 -8 10 -11 10 -2 0
-4 -4 -4 -10z"/>
<path d="M4775 10230 c-3 -5 -3 -10 2 -11 4 0 -1 -5 -12 -10 l-20 -9 20 3 c11
2 19 9 17 18 -3 11 -1 11 9 2 10 -10 9 -16 -4 -30 -8 -10 -16 -21 -16 -25 -1
-5 -1 -11 -2 -15 0 -5 -5 1 -10 12 -8 18 -8 17 -6 -5 1 -14 8 -24 15 -22 8 1
11 -2 6 -9 -5 -9 1 -10 22 -5 25 5 26 5 10 -5 -15 -9 -24 -9 -39 0 -26 16 -37
3 -13 -15 11 -7 17 -16 14 -19 -2 -3 -13 4 -23 15 -21 23 -40 27 -32 6 4 -10
0 -12 -14 -9 -10 3 -19 10 -19 15 0 5 4 7 9 4 5 -3 12 1 15 10 3 8 2 13 -3 9
-5 -3 -12 1 -14 7 -3 8 -6 6 -6 -4 -1 -11 -6 -15 -15 -12 -8 3 -17 0 -22 -7
-5 -9 -2 -10 12 -5 10 4 15 4 11 0 -4 -4 -2 -14 5 -21 9 -11 9 -16 -2 -23 -18
-11 -31 -3 -23 15 3 8 -1 15 -8 15 -7 0 -9 -3 -6 -7 4 -3 -1 -12 -11 -19 -16
-12 -16 -13 1 -31 9 -11 14 -23 10 -26 -3 -4 -1 -7 4 -7 6 0 21 12 33 28 14
18 18 20 11 6 -6 -12 -7 -25 -3 -29 4 -5 2 -5 -5 -1 -7 4 -19 -4 -29 -19 -9
-14 -21 -25 -28 -24 -7 0 -6 2 2 6 19 8 14 33 -7 33 -11 0 -22 4 -25 9 -3 4 7
6 22 4 19 -3 23 -2 13 5 -17 13 -47 8 -44 -7 2 -6 -2 -11 -7 -11 -5 0 -10 5
-10 10 0 6 -6 6 -14 -2 -13 -13 -15 -56 -2 -77 4 -6 0 -11 -9 -11 -10 0 -14 5
-10 13 4 6 0 4 -8 -6 -10 -12 -17 -14 -22 -8 -3 6 -1 11 4 11 15 0 14 13 -5
36 -13 16 -15 16 -10 2 3 -11 -4 -27 -17 -39 -16 -16 -17 -20 -5 -16 9 3 28 0
42 -6 27 -13 34 -27 14 -27 -9 0 -8 -4 2 -10 13 -8 13 -10 -2 -10 -9 0 -19 6
-22 13 -4 6 -4 2 -2 -10 2 -13 0 -23 -5 -23 -5 0 -9 3 -10 8 -2 24 -8 45 -15
50 -4 4 -4 -1 -1 -10 3 -10 2 -20 -3 -23 -6 -4 -10 -1 -10 6 0 7 -3 9 -7 6 -3
-4 4 -17 16 -28 12 -12 20 -24 17 -27 -3 -3 -14 2 -24 11 -13 12 -21 13 -32 6
-12 -9 -12 -10 2 -5 10 3 17 2 16 -2 -1 -4 3 -18 10 -32 12 -22 12 -23 -1 -7
-8 10 -17 14 -19 10 -3 -4 -3 -2 -2 5 4 15 -13 16 -18 0 -3 -7 -12 -9 -22 -5
-9 4 -15 11 -12 15 3 5 -1 9 -8 9 -8 0 -12 -6 -9 -14 3 -7 9 -13 15 -13 5 0 6
-5 3 -10 -4 -7 -12 -7 -25 0 -10 5 -22 10 -27 10 -4 -1 3 -7 17 -14 14 -8 29
-11 35 -8 20 13 33 10 38 -9 4 -16 2 -17 -14 -8 -23 12 -48 1 -28 -12 8 -5 10
-9 4 -10 -41 -6 -56 -5 -62 4 -4 7 -9 4 -12 -5 -5 -14 -8 -15 -25 -3 -16 12
-17 17 -6 30 12 14 15 14 31 -1 11 -10 19 -14 19 -9 0 4 7 2 15 -5 21 -18 30
-6 10 13 -8 9 -22 14 -29 11 -7 -3 -16 2 -19 10 -7 19 -28 22 -25 4 2 -7 -3
-12 -10 -10 -8 1 -11 -2 -7 -8 3 -5 1 -10 -4 -10 -8 0 -7 -7 1 -19 7 -11 16
-17 20 -15 4 3 8 -2 8 -10 0 -9 6 -16 13 -17 6 0 -1 -5 -17 -11 -21 -8 -25
-13 -15 -19 11 -7 10 -9 -4 -9 -10 0 -16 -4 -13 -9 3 -5 -1 -12 -10 -15 -11
-4 -15 -2 -11 8 8 19 -18 42 -29 25 -4 -7 -3 -9 4 -5 6 3 13 2 16 -3 4 -5 1
-13 -5 -17 -8 -4 -3 -11 12 -20 22 -12 19 -13 -28 -9 -49 3 -63 -2 -46 -18 3
-4 13 -2 22 4 9 6 4 0 -11 -14 -15 -14 -24 -28 -20 -33 4 -4 1 -4 -6 0 -7 4
-10 11 -7 16 3 4 -3 14 -13 21 -9 7 -14 9 -10 5 4 -5 2 -16 -5 -24 -8 -10 -8
-13 0 -9 7 5 10 -3 9 -23 -1 -17 1 -30 6 -30 4 0 8 -5 8 -12 0 -6 -7 -4 -18 5
-24 22 -32 21 -32 -2 0 -24 -16 -36 -26 -20 -4 8 -3 9 4 5 8 -5 12 1 12 16 -1
22 -1 22 -15 4 -18 -23 -19 -33 -5 -41 8 -5 7 -11 -1 -21 -8 -10 -8 -14 0 -14
6 0 11 -5 11 -11 0 -5 -4 -7 -10 -4 -5 3 -10 0 -10 -7 0 -10 -2 -10 -9 1 -5 7
-14 10 -21 6 -8 -5 -11 -1 -8 10 1 10 9 20 17 23 8 3 11 0 7 -6 -3 -6 -3 -13
2 -16 4 -2 8 6 8 18 0 12 -6 23 -13 23 -7 0 -13 -4 -13 -9 0 -5 -5 -6 -12 -2
-7 4 -8 3 -4 -4 9 -14 -6 -16 -20 -2 -6 6 -8 -4 -6 -28 4 -44 -13 -64 -56 -67
-30 -1 -58 25 -39 37 7 4 2 6 -10 5 -12 0 -21 -4 -21 -7 2 -18 -4 -21 -17 -10
-8 7 -12 17 -8 23 4 6 1 7 -6 3 -9 -6 -8 -13 5 -27 13 -14 20 -16 31 -8 10 9
13 7 13 -10 0 -17 -5 -22 -22 -19 -17 2 -23 -2 -22 -14 1 -10 -3 -18 -8 -18
-6 0 -8 -7 -5 -15 4 -8 1 -17 -5 -21 -8 -5 -7 -10 3 -18 22 -17 21 -35 -1 -31
-11 2 -20 0 -20 -6 0 -5 -4 -9 -10 -9 -5 0 -7 7 -3 16 3 8 12 13 19 10 8 -3
14 -2 14 3 0 18 -15 20 -39 5 -14 -9 -23 -13 -19 -9 6 7 -14 35 -25 35 -12 0
0 -36 16 -48 9 -7 17 -19 16 -25 0 -9 -2 -8 -6 1 -2 6 -9 10 -14 6 -5 -3 -9 0
-9 7 0 6 -9 0 -21 -15 -11 -14 -25 -23 -31 -20 -7 4 -8 2 -4 -5 6 -9 13 -8 31
3 21 14 28 14 57 1 18 -8 30 -15 26 -16 -5 -1 -11 -2 -15 -3 -5 -1 -14 -5 -21
-10 -7 -4 -16 -5 -19 -2 -4 3 -1 6 5 6 7 0 12 5 12 11 0 5 -5 7 -12 3 -7 -5
-8 -3 -3 6 5 9 4 11 -3 6 -7 -4 -12 -14 -12 -22 0 -11 -6 -14 -22 -9 -18 5
-20 4 -8 -4 14 -10 8 -13 -16 -10 -3 0 -11 -7 -18 -17 -10 -13 -15 -14 -21 -4
-6 9 -4 11 6 5 8 -5 10 -4 6 0 -23 26 -72 1 -60 -31 8 -21 22 -17 18 6 -5 28
9 33 24 8 7 -11 8 -17 2 -13 -6 3 -11 2 -11 -4 0 -5 6 -12 13 -14 6 -3 1 -6
-11 -6 -13 -1 -37 8 -52 19 -26 18 -28 18 -25 3 2 -10 4 -31 4 -48 1 -20 4
-26 10 -17 7 11 9 11 14 -1 6 -15 0 -27 -14 -27 -9 0 -24 40 -21 53 1 5 -2 6
-8 2 -5 -3 -10 -1 -10 6 0 7 -3 9 -6 6 -4 -4 -2 -13 4 -20 13 -15 11 -76 -2
-74 -20 4 -16 -24 6 -32 l23 -10 -24 0 c-24 -1 -24 -1 -5 -23 19 -22 19 -23
-1 -8 -11 8 -22 18 -25 22 -7 9 -22 -2 -35 -26 -6 -10 -15 -18 -20 -18 -6 0
-19 -7 -29 -16 -11 -9 -16 -11 -12 -4 4 6 2 12 -4 12 -6 0 -13 -7 -17 -16 -3
-8 -12 -13 -19 -10 -9 4 -14 -2 -14 -15 0 -13 4 -18 12 -13 7 4 8 3 4 -4 -5
-9 -13 -9 -26 -2 -25 13 -30 13 -30 -5 0 -8 -4 -15 -10 -15 -5 0 -7 -8 -4 -17
5 -14 4 -15 -4 -4 -8 11 -11 10 -14 -5 -2 -13 -6 -15 -11 -7 -5 8 0 20 13 30
23 20 27 35 6 27 -8 -3 -25 0 -38 6 -21 10 -21 10 -5 -3 9 -8 17 -20 17 -26 0
-8 -5 -7 -16 3 -33 33 -30 6 3 -31 12 -14 19 -31 16 -39 -3 -8 1 -22 8 -31 13
-15 12 -15 -8 -2 -13 8 -21 20 -18 29 2 8 1 21 -4 29 -7 11 -11 10 -20 -7 -8
-15 -8 -21 2 -25 15 -6 -5 -43 -22 -39 -6 1 -11 -2 -11 -8 0 -5 3 -10 8 -10 4
0 8 -12 9 -27 1 -22 -1 -24 -9 -10 -13 24 -29 11 -24 -20 3 -14 2 -23 -1 -20
-3 4 -14 2 -24 -4 -15 -7 -17 -6 -13 5 3 9 9 15 12 14 19 -2 22 4 12 22 -6 11
-16 20 -22 20 -6 0 -5 -6 3 -17 13 -15 12 -15 -6 -6 -11 6 -24 11 -30 11 -5 0
-13 9 -17 19 -4 10 -5 -6 -4 -35 2 -29 1 -50 -2 -47 -3 2 -10 -3 -17 -12 -15
-20 -39 -8 -30 15 3 9 3 13 -1 10 -4 -4 -15 -3 -25 2 -15 8 -17 7 -14 -9 3
-15 -1 -19 -16 -16 -10 2 -26 -3 -35 -12 -14 -14 -13 -17 13 -34 l28 -19 -27
0 c-15 0 -32 8 -38 18 -10 16 -10 16 -8 -2 2 -10 -3 -21 -11 -24 -9 -3 -11 0
-6 8 5 9 4 11 -4 6 -14 -9 -5 -26 14 -26 7 0 15 -3 18 -7 2 -5 3 -3 2 2 -2 6
8 11 21 11 13 1 24 -2 24 -7 0 -5 7 -9 15 -9 18 0 19 -9 4 -30 -9 -12 -10 -12
-5 4 6 16 4 17 -9 6 -13 -11 -16 -11 -13 0 2 7 -3 15 -11 17 -10 4 -12 -2 -6
-26 4 -18 3 -31 -3 -31 -5 0 -9 8 -8 18 1 13 -6 16 -29 14 -16 -2 -34 -9 -40
-16 -5 -7 -17 -15 -25 -19 -13 -5 -13 -6 0 -6 9 -1 33 8 54 18 40 21 39 23 18
-28 -4 -11 0 -13 16 -9 12 4 20 3 17 -2 -11 -18 -43 -17 -48 1 -3 11 -11 19
-17 19 -7 0 -10 -7 -6 -16 5 -13 4 -14 -7 -6 -10 9 -17 8 -27 -1 -10 -10 -11
-9 -5 3 7 13 6 13 -6 1 -11 -10 -11 -15 -1 -18 23 -9 13 -33 -13 -31 -16 2
-24 7 -21 15 3 7 0 15 -6 19 -7 4 -8 3 -4 -4 4 -7 3 -12 -3 -12 -5 0 -12 5
-14 10 -3 6 -4 5 -3 -2 1 -7 -3 -18 -10 -25 -16 -16 -28 -17 -18 -1 4 7 3 8
-5 4 -8 -6 -9 -12 -2 -20 6 -7 8 -16 4 -19 -3 -4 -2 -7 4 -7 5 0 15 12 22 27
9 20 14 24 21 13 5 -9 1 -19 -13 -31 -12 -9 -19 -20 -16 -23 11 -11 38 5 45
27 7 22 7 22 15 2 6 -17 8 -17 8 -2 1 9 9 17 18 17 14 0 13 -4 -5 -23 -12 -13
-19 -27 -15 -32 5 -4 3 -5 -4 -2 -6 4 -14 1 -16 -5 -4 -10 -6 -10 -6 0 -1 6
-6 12 -12 12 -6 0 -7 -6 -2 -12 4 -7 -4 -6 -18 4 -30 19 -66 17 -61 -3 3 -12
1 -12 -10 -1 -11 11 -9 16 12 32 24 18 24 19 3 17 -12 0 -20 -4 -18 -8 3 -3
-5 -15 -15 -27 -23 -24 -27 -40 -7 -23 10 8 17 7 26 -2 11 -9 14 -9 18 1 8 20
20 13 17 -10 -1 -13 -3 -25 -4 -28 -1 -3 -2 -8 -2 -11 1 -4 -8 -5 -18 -2 -11
3 -20 10 -20 15 0 6 7 8 15 5 8 -4 17 -2 20 3 6 9 -27 16 -50 10 -5 -1 -16 -3
-22 -3 -9 0 -11 -14 -8 -49 5 -48 5 -48 -24 -48 -33 0 -38 5 -45 43 -3 19 0
27 10 27 8 0 14 -4 14 -10 0 -5 -5 -10 -11 -10 -5 0 -7 -5 -4 -10 4 -6 10 -8
15 -5 5 3 10 -2 12 -11 2 -10 7 -5 14 14 10 25 9 35 -2 49 -12 16 -13 14 -8
-17 l5 -35 -17 33 c-9 17 -21 32 -26 32 -5 0 -6 -4 -3 -10 3 -5 1 -10 -5 -10
-7 0 -10 -6 -7 -14 3 -8 -2 -17 -11 -21 -16 -6 -16 -7 1 -16 9 -6 17 -15 17
-22 0 -7 -4 -6 -10 3 -8 12 -10 12 -16 -3 -3 -9 -11 -14 -17 -10 -5 3 -7 1 -3
-5 3 -5 0 -13 -6 -16 -7 -3 -2 -3 11 0 16 4 21 3 17 -5 -4 -6 -14 -11 -22 -11
-8 0 -14 -6 -14 -14 0 -24 -22 -30 -37 -11 -7 11 -13 14 -13 9 0 -6 5 -15 12
-22 9 -9 9 -15 -1 -24 -8 -8 -11 -8 -8 -2 10 17 -16 35 -33 23 -13 -8 -11 -12
10 -29 14 -11 19 -20 12 -20 -7 0 -10 -5 -6 -11 4 -7 1 -10 -7 -7 -8 3 -14 13
-14 23 0 10 -6 20 -12 22 -7 3 -13 0 -13 -7 0 -6 4 -8 10 -5 6 3 10 2 10 -4 0
-5 -6 -12 -12 -14 -9 -4 -9 -8 -3 -14 16 -13 17 -36 2 -30 -8 3 -20 0 -27 -6
-10 -9 -11 -9 -5 2 14 24 13 70 -1 75 -9 3 -11 -1 -7 -11 5 -12 2 -15 -10 -10
-11 4 -14 2 -11 -8 3 -8 9 -13 12 -12 4 1 7 -2 7 -8 0 -5 -3 -9 -7 -8 -5 2 -8
-7 -8 -19 0 -19 -2 -20 -17 -6 -24 21 -49 12 -27 -9 13 -13 13 -17 2 -24 -7
-5 -8 -9 -3 -9 6 0 17 4 25 10 9 5 19 5 27 -2 10 -8 12 -7 8 4 -4 11 2 18 22
22 15 4 36 9 46 12 9 3 17 2 17 -3 0 -5 -12 -10 -27 -11 -28 -2 -57 -28 -48
-43 3 -4 0 -11 -6 -15 -7 -4 -10 -3 -7 2 3 5 0 15 -8 22 -13 12 -18 8 -15 -11
1 -5 -3 -6 -9 -2 -20 13 -9 -7 18 -30 15 -13 21 -25 15 -25 -7 0 -13 5 -13 10
0 6 -11 15 -25 22 -13 6 -22 16 -18 22 3 6 2 7 -2 3 -14 -12 -15 -37 -2 -37 7
0 6 -4 -2 -9 -9 -6 -21 -5 -33 2 -16 10 -22 9 -33 -7 -16 -22 -11 -36 13 -36
12 0 13 3 4 12 -15 15 -16 28 -2 28 6 0 10 -7 10 -16 0 -8 4 -12 10 -9 15 9
12 -4 -5 -21 -8 -9 -19 -13 -24 -10 -5 4 -12 0 -14 -6 -4 -10 -8 -9 -16 2 -11
16 -14 11 -14 -31 0 -19 -58 -19 -81 0 -10 8 -16 8 -23 -1 -11 -15 -16 -75 -6
-64 8 8 10 14 12 47 0 11 6 17 11 14 6 -4 8 -10 5 -15 -3 -4 1 -11 7 -13 10
-4 10 -6 0 -6 -7 -1 -10 -6 -7 -11 4 -6 1 -17 -5 -25 -7 -9 -8 -15 -2 -15 5 0
17 15 26 33 15 31 16 31 14 5 -1 -15 -4 -25 -6 -24 -8 9 -54 -45 -49 -58 3 -8
0 -19 -7 -25 -14 -11 -26 -5 -26 13 0 6 4 5 9 -3 5 -8 11 -9 15 -3 3 6 2 13
-4 17 -5 3 -10 13 -10 21 0 8 5 12 10 9 6 -3 10 -1 10 4 0 6 -7 11 -16 11 -8
0 -13 4 -10 8 2 4 -6 8 -19 8 -13 0 -21 -4 -19 -8 3 -4 11 -8 17 -8 7 0 13 -9
13 -20 0 -25 -3 -25 -28 3 -11 12 -16 16 -12 8 4 -8 0 -19 -10 -27 -16 -11
-16 -13 3 -19 12 -3 26 -3 33 1 9 6 9 3 -1 -9 -9 -11 -10 -17 -2 -17 6 0 11
-5 11 -12 0 -6 -9 -3 -20 7 -11 10 -20 14 -20 9 0 -5 -5 -2 -10 6 -7 11 -10
11 -10 2 0 -7 -5 -10 -10 -7 -6 4 -8 10 -5 14 2 5 -9 8 -26 7 l-30 -1 22 -17
c11 -10 25 -15 30 -12 5 3 9 1 9 -5 0 -5 -7 -14 -16 -19 -15 -8 -15 -10 0 -15
11 -4 19 0 24 12 7 18 8 18 24 -3 12 -16 13 -27 6 -37 -8 -11 -9 -10 -4 4 5
16 -3 21 -21 15 -5 -2 -7 -6 -6 -10 5 -13 -11 -9 -34 7 -21 15 -27 5 -10 -21
4 -7 0 -17 -8 -24 -7 -6 -11 -19 -8 -28 6 -14 5 -15 -9 -2 -12 12 -13 17 -3
25 9 6 10 17 5 30 -7 16 -9 17 -9 3 -1 -9 -6 -20 -12 -24 -7 -4 -9 0 -5 14 4
12 2 23 -5 28 -7 4 -9 3 -6 -3 4 -5 -5 -25 -18 -43 -13 -18 -22 -37 -19 -41 3
-5 0 -9 -6 -9 -7 0 -9 8 -5 21 5 16 4 19 -6 14 -9 -6 -11 -4 -6 8 6 16 -5 29
-37 41 -16 5 -17 4 -6 -9 7 -8 16 -12 21 -9 5 3 6 -2 3 -11 -4 -8 -1 -22 5
-29 9 -11 9 -16 0 -22 -8 -4 -9 -3 -5 4 4 7 2 12 -3 12 -18 0 -12 -19 9 -30
14 -8 26 -8 43 0 20 10 20 9 -3 -9 l-25 -20 40 6 c22 3 37 2 33 -2 -4 -4 -18
-8 -30 -9 -13 0 -24 -7 -24 -13 -1 -7 -2 -17 -3 -23 0 -5 -6 -10 -12 -10 -8 0
-8 5 1 15 9 10 9 15 1 15 -6 0 -10 6 -8 13 1 7 -8 12 -23 12 -14 0 -24 5 -23
12 2 7 -4 10 -12 6 -13 -5 -13 -7 2 -19 17 -13 17 -13 -2 -14 -12 0 -16 -3 -9
-8 10 -6 16 -42 7 -42 -12 0 -52 34 -48 41 3 4 -5 6 -17 4 -13 -3 -25 -10 -26
-15 -3 -7 -9 -7 -18 1 -10 8 -14 8 -14 0 0 -6 5 -11 10 -11 6 0 10 -12 10 -26
0 -17 -4 -23 -13 -18 -9 6 -9 4 1 -8 15 -18 52 -30 52 -17 0 5 -7 9 -15 9 -8
0 -15 7 -15 15 0 8 5 15 11 15 5 0 7 -4 4 -10 -3 -5 -1 -10 4 -10 16 0 13 11
-6 32 -16 18 -16 19 3 12 14 -4 15 -3 5 4 -8 6 -9 12 -3 16 16 9 24 -10 26
-60 0 -27 -3 -44 -10 -44 -14 0 -26 -28 -18 -41 3 -5 0 -9 -5 -9 -13 0 -14 16
-2 39 8 13 3 19 -21 30 -23 10 -29 18 -24 35 5 20 5 20 -9 2 -13 -17 -12 -22
8 -41 12 -12 26 -19 30 -17 5 2 4 -5 -2 -15 -6 -11 -8 -23 -4 -26 3 -4 -2 -9
-11 -13 -10 -4 -23 -1 -29 6 -9 10 -8 11 9 6 15 -4 21 -2 21 9 0 8 -6 15 -14
15 -7 0 -13 9 -13 19 0 12 -12 26 -29 34 -25 12 -29 12 -24 1 3 -8 9 -14 13
-14 4 0 10 -6 13 -14 6 -15 -21 -15 -54 -1 -10 3 -20 2 -24 -4 -3 -7 0 -8 9
-5 11 4 16 0 16 -11 0 -10 -5 -13 -12 -9 -7 5 -8 3 -3 -6 6 -10 11 -9 22 5 7
11 13 13 13 6 0 -7 5 -9 11 -5 7 4 10 1 7 -7 -3 -8 -9 -14 -14 -14 -25 -2 -54
-18 -54 -30 0 -9 6 -12 15 -9 8 4 15 11 15 18 0 6 4 4 10 -4 5 -9 5 -19 -2
-27 -7 -9 -7 -13 1 -13 6 0 11 -4 11 -10 0 -5 -6 -7 -14 -4 -9 3 -17 -3 -21
-16 -7 -24 -36 -24 -42 0 -4 12 -3 13 5 1 5 -7 15 -10 21 -7 21 13 1 25 -37
21 -49 -4 -49 -4 -36 -13 19 -11 22 -57 4 -58 -24 -1 -33 8 -19 17 11 7 10 9
-3 9 -10 0 -18 -9 -20 -22 -2 -15 -9 -22 -21 -22 -21 2 -21 0 -1 -20 12 -12
20 -13 35 -6 15 8 19 8 17 -2 -3 -13 -56 -58 -67 -58 -3 0 2 7 11 14 10 7 18
18 18 25 0 15 -20 14 -20 -1 -1 -16 -23 22 -26 42 -1 8 -5 23 -9 34 -7 15 -5
17 13 11 13 -4 22 -2 22 4 0 6 3 10 8 10 4 -1 14 -1 22 1 11 1 9 4 -5 9 -11 5
-29 2 -44 -5 -13 -7 -28 -11 -32 -8 -5 3 -2 -10 5 -28 15 -36 11 -58 -8 -58
-7 0 -13 -7 -13 -15 0 -8 6 -15 13 -15 23 0 24 -17 1 -36 -18 -16 -19 -16 -8
-1 12 16 9 19 -15 16 -4 0 -10 5 -15 12 -6 10 -13 10 -34 1 -22 -10 -25 -15
-15 -27 7 -8 17 -12 22 -9 6 4 6 9 -2 14 -9 6 -9 9 -1 15 7 4 18 1 27 -5 12
-11 12 -14 -2 -25 -12 -8 -14 -14 -6 -19 7 -4 12 -2 12 5 0 7 3 10 6 7 6 -6
-24 -58 -40 -69 -5 -4 -5 -12 -1 -19 5 -9 4 -11 -3 -6 -16 10 -15 27 2 40 22
17 23 38 3 41 -15 3 -16 1 -6 -11 16 -20 5 -29 -13 -11 -12 13 -14 10 -14 -22
1 -20 4 -41 8 -47 4 -6 1 -11 -7 -11 -8 0 -14 3 -13 6 3 30 -4 34 -22 12 -11
-13 -20 -18 -20 -12 0 6 -5 11 -10 11 -6 0 -8 -12 -4 -27 4 -22 3 -25 -5 -13
-8 11 -11 12 -11 2 0 -7 -5 -10 -10 -7 -8 5 -8 11 0 20 8 9 6 14 -7 19 -15 6
-15 9 -3 16 8 5 17 7 21 4 4 -2 9 5 12 15 4 18 3 18 -27 2 -17 -9 -33 -17 -36
-19 -3 -2 3 -8 13 -13 15 -9 16 -13 2 -38 -8 -16 -12 -39 -10 -52 4 -21 3 -22
-8 -8 -12 16 -37 15 -37 -2 0 -6 5 -7 12 -3 7 4 8 3 4 -5 -4 -6 -12 -9 -17 -6
-5 4 -9 2 -9 -4 0 -6 -7 -7 -17 -4 -10 4 -14 2 -10 -4 4 -6 1 -13 -5 -16 -10
-4 -11 -7 0 -18 10 -11 12 -10 12 3 0 18 37 31 42 16 2 -6 11 -3 21 6 9 10 17
12 17 6 0 -6 -7 -13 -15 -16 -13 -5 -13 -9 -3 -23 11 -14 11 -14 -3 -4 -9 7
-20 9 -24 5 -5 -4 -5 -1 -1 6 12 20 -12 13 -27 -8 -13 -18 -15 -19 -21 -5 -3
9 -11 13 -18 9 -8 -5 -9 -2 -5 9 6 17 -5 31 -16 20 -9 -9 13 -44 24 -38 5 4 9
2 9 -4 0 -6 -8 -15 -19 -20 -16 -9 -18 -7 -18 15 0 14 -6 31 -12 37 -8 8 -11
8 -11 -2 0 -9 -4 -10 -13 -5 -7 5 -5 2 5 -8 22 -20 23 -32 4 -47 -11 -10 -16
-9 -23 2 -7 13 -10 13 -22 0 -11 -12 -10 -14 5 -11 12 2 18 -2 16 -10 -1 -8 2
-11 8 -7 5 3 10 1 10 -5 0 -7 6 -10 13 -7 6 2 11 9 10 14 -1 5 7 10 18 10 18
2 18 0 -4 -17 -15 -12 -32 -17 -46 -13 -17 4 -20 2 -15 -12 6 -15 4 -16 -14
-6 -11 6 -27 8 -36 5 -18 -7 -10 -34 10 -34 11 0 12 -4 5 -19 -6 -10 -8 -20
-6 -23 3 -3 -2 -5 -10 -5 -11 0 -12 4 -5 11 12 12 13 27 3 25 -5 -1 -10 0 -13
1 -3 1 -14 3 -25 5 -17 3 -18 2 -5 -8 8 -7 15 -19 15 -27 0 -13 28 -15 185
-18 l185 -3 248 -687 c240 -665 338 -951 388 -1134 13 -49 26 -88 29 -88 4 0
12 24 19 53 26 105 236 717 439 1277 l208 575 342 3 342 2 0 -1310 0 -1310
-246 0 -246 0 6 923 c3 507 9 958 11 1002 l5 80 -99 -295 c-55 -162 -217 -612
-359 -1000 l-259 -705 -160 -3 -159 -2 -279 757 c-153 417 -314 867 -358 1001
-44 134 -81 242 -82 240 -2 -2 1 -64 6 -138 5 -74 12 -523 15 -998 l7 -862
-247 0 -246 0 -1 1108 c0 609 0 1130 1 1157 1 28 -3 62 -9 77 -7 19 -7 28 2
32 8 3 8 5 -2 5 -10 1 -11 4 -2 15 9 11 9 16 1 21 -16 10 -34 -10 -24 -27 5
-7 10 -21 11 -31 3 -15 0 -16 -20 -6 -12 7 -23 12 -24 11 -12 -8 -13 1 -2 16
13 15 12 16 -3 3 -10 -7 -15 -17 -12 -22 3 -5 -2 -12 -10 -15 -8 -3 -18 -16
-22 -27 -11 -37 -24 -48 -44 -37 -13 7 -21 6 -26 -2 -4 -6 -3 -8 3 -5 15 10
49 -25 49 -50 0 -12 -3 -20 -7 -17 -4 2 -9 -1 -12 -8 -5 -14 -2 9 4 31 2 7 -2
16 -10 19 -9 3 -11 0 -7 -9 4 -8 0 -5 -8 5 -9 11 -16 18 -17 15 -8 -49 -12
-54 -34 -45 -9 3 -13 10 -10 16 4 6 -1 7 -11 3 -13 -5 -15 -3 -9 8 8 12 6 12
-8 0 -18 -15 -23 -26 -7 -16 6 3 10 1 10 -5 0 -6 4 -9 9 -5 15 9 31 -29 25
-59 -3 -19 -1 -25 6 -21 6 4 9 13 7 19 -7 17 23 77 34 70 16 -9 10 -34 -6 -28
-13 6 -20 -10 -16 -38 0 -4 -5 -18 -13 -32 -11 -22 -15 -24 -25 -12 -16 19
-48 9 -55 -17 -5 -18 -8 -19 -16 -7 -6 10 -3 21 11 36 10 11 17 23 14 26 -3 3
2 8 11 12 12 5 15 2 12 -12 -3 -11 0 -19 8 -19 8 0 14 6 14 13 0 7 3 21 7 31
6 16 5 17 -12 3 -17 -14 -18 -13 -11 5 4 11 4 16 0 13 -4 -4 -16 -3 -26 3 -16
9 -19 8 -15 -3 2 -7 10 -12 16 -11 6 2 11 -2 11 -7 0 -6 -7 -10 -16 -10 -10 0
-14 -6 -11 -14 6 -15 -24 -40 -58 -49 -16 -4 -15 -5 5 -6 27 -1 57 -36 40 -46
-6 -3 -10 -1 -10 4 0 6 -5 11 -11 11 -5 0 -7 -6 -3 -12 4 -7 -2 -4 -14 6 -12
11 -25 16 -28 13 -4 -4 1 -9 10 -13 9 -3 13 -10 10 -15 -3 -5 1 -9 8 -9 8 0 6
-5 -4 -11 -10 -5 -18 -17 -18 -25 0 -10 -5 -12 -12 -8 -10 6 -10 4 -2 -7 14
-17 1 -59 -18 -59 -10 0 -10 2 1 9 9 6 11 18 7 38 -5 23 -3 32 9 37 18 6 11
26 -8 26 -7 0 -6 -4 3 -10 13 -8 13 -10 -2 -10 -9 0 -19 6 -22 13 -4 6 -4 2
-2 -10 2 -13 0 -23 -5 -23 -5 0 -9 5 -9 10 0 19 -17 10 -28 -15 -7 -15 -8 -25
-2 -25 6 0 10 -7 10 -15 0 -17 16 -20 25 -5 3 6 12 10 18 10 7 0 4 -5 -6 -11
-9 -6 -15 -14 -12 -20 4 -5 -4 -5 -19 1 l-26 10 0 -2890 0 -2890 5120 0 5120
0 0 5120 0 5120 -2694 0 c-2512 0 -2694 -2 -2692 -17 4 -23 26 -29 26 -6 0 15
2 16 10 3 5 -8 10 -10 10 -4 0 6 7 11 16 11 14 0 14 -2 -2 -13 -11 -7 -28 -21
-38 -31 -11 -10 -16 -13 -12 -6 3 6 2 14 -3 17 -5 4 -11 1 -14 -6 -2 -7 -3 -5
-2 5 2 9 -1 17 -7 17 -5 0 -6 5 -2 12 5 8 2 9 -9 5 -10 -3 -17 -2 -17 3 0 13
-27 13 -35 0z m55 -52 c0 -5 -7 -8 -16 -8 -10 0 -14 -6 -10 -15 3 -8 1 -15 -4
-15 -14 0 -12 44 2 58 9 9 14 9 20 -1 4 -6 8 -15 8 -19z m-116 -158 c-6 -6
-10 -2 -11 12 -2 16 1 18 10 9 7 -7 8 -14 1 -21z m-114 -21 c20 2 22 1 11 -12
-10 -13 -9 -17 6 -27 17 -11 17 -11 0 -6 -10 3 -25 6 -33 6 -8 0 -14 7 -14 15
0 9 -6 12 -15 9 -11 -5 -13 -2 -9 10 3 9 11 13 18 9 6 -4 22 -6 36 -4z m-25
-58 c-3 -5 -1 -12 5 -16 5 -3 10 -1 10 6 0 19 10 5 15 -21 3 -17 1 -19 -9 -11
-7 6 -17 7 -21 3 -5 -4 -5 -2 -1 5 3 6 2 14 -4 18 -10 6 -5 25 6 25 3 0 3 -4
-1 -9z m-15 -56 c11 -13 10 -14 -4 -9 -9 3 -16 10 -16 15 0 13 6 11 20 -6z
m-76 -105 c-5 -5 -10 3 -11 18 -1 22 0 24 9 8 6 -10 6 -22 2 -26z m-24 -22 c0
-4 -4 -8 -9 -8 -6 0 -12 4 -15 8 -3 5 1 9 9 9 8 0 15 -4 15 -9z m-113 -55 c0
-6 -5 -11 -11 -10 -6 1 -10 -4 -8 -11 1 -8 -2 -11 -7 -8 -5 3 -12 -1 -15 -10
-3 -8 -11 -12 -16 -9 -15 9 -7 30 11 30 8 0 13 7 12 16 -2 8 5 15 15 15 10 0
19 -6 19 -13z m-78 -103 c-7 -5 -19 -6 -26 -3 -11 5 -12 8 -2 13 7 5 19 6 26
3 11 -5 12 -8 2 -13z m-74 -20 c-3 -5 -1 -10 6 -10 8 0 9 -3 0 -13 -6 -8 -8
-17 -4 -20 3 -4 1 -7 -6 -7 -8 0 -10 7 -6 22 6 16 4 20 -8 15 -11 -4 -14 -2
-10 9 3 7 12 14 20 14 8 0 11 -4 8 -10z m-20 -80 c3 -6 -4 -10 -17 -10 -18 0
-20 2 -8 10 19 12 18 12 25 0z m-75 -14 c0 -3 -4 -8 -10 -11 -5 -3 -10 -1 -10
4 0 6 5 11 10 11 6 0 10 -2 10 -4z m47 -21 c0 -8 -4 -12 -9 -9 -5 3 -6 10 -3
15 9 13 12 11 12 -6z m-27 -5 c0 -5 -5 -10 -11 -10 -5 0 -7 5 -4 10 3 6 8 10
11 10 2 0 4 -4 4 -10z m-33 -16 c-3 -3 -12 -4 -19 -1 -8 3 -5 6 6 6 11 1 17
-2 13 -5z m-72 -72 c11 -6 14 -12 7 -12 -8 0 -10 -5 -6 -12 4 -7 -2 -5 -13 5
-11 9 -25 17 -33 17 -9 0 -10 3 -1 13 6 8 10 16 8 18 -1 2 3 -1 8 -7 6 -6 19
-16 30 -22z m-128 -27 c0 -8 -5 -11 -10 -8 -6 4 -8 0 -4 -10 4 -11 2 -14 -9
-10 -7 3 -21 2 -29 -1 -13 -4 -14 -10 -5 -26 6 -11 7 -20 1 -20 -15 0 -22 32
-10 46 8 10 8 14 0 14 -6 0 -11 4 -11 10 0 6 9 6 26 0 14 -6 23 -6 19 -1 -3 5
3 12 12 14 10 3 18 5 19 6 0 0 1 -6 1 -14z m73 11 c0 -2 -7 -6 -15 -10 -8 -3
-15 -1 -15 4 0 6 7 10 15 10 8 0 15 -2 15 -4z m-40 -10 c0 -3 -4 -8 -10 -11
-5 -3 -10 -1 -10 4 0 6 5 11 10 11 6 0 10 -2 10 -4z m-13 -71 c-13 -9 -14 -15
-4 -25 10 -12 9 -12 -5 -1 -14 10 -18 9 -27 -7 -6 -11 -7 -23 -3 -28 4 -5 -2
-1 -14 9 -11 9 -24 14 -27 10 -4 -3 -7 -1 -7 5 0 7 7 12 15 12 8 0 15 -6 15
-12 0 -9 3 -8 10 2 6 9 5 17 -3 23 -8 6 -6 7 5 3 10 -3 20 -1 23 4 4 6 0 10
-7 10 -10 0 -10 2 1 9 8 5 21 7 29 3 13 -4 13 -7 -1 -17z m-72 -65 c3 -5 1
-10 -4 -10 -6 0 -11 5 -11 10 0 6 2 10 4 10 3 0 8 -4 11 -10z m-28 -7 c-4 -3
-2 -12 5 -20 6 -7 9 -15 7 -17 -2 -2 -12 7 -22 20 -17 22 -17 24 -1 24 10 0
14 -3 11 -7z m-117 -83 c0 -5 -7 -10 -16 -10 -14 0 -14 -3 -4 -15 7 -9 10 -18
7 -22 -4 -3 -9 2 -13 11 -5 14 -9 14 -22 4 -14 -12 -14 -11 -1 9 7 12 20 24
29 27 8 2 16 4 18 5 1 0 2 -3 2 -9z m-130 -60 c0 -5 -2 -10 -4 -10 -3 0 -8 5
-11 10 -3 6 -1 10 4 10 6 0 11 -4 11 -10z m74 -5 c-4 -8 -1 -15 7 -15 7 0 9
-3 6 -6 -4 -4 -14 -1 -22 6 -13 11 -13 15 -3 21 18 12 18 11 12 -6z m-33 -24
c-8 -5 -20 -7 -28 -4 -21 8 -15 13 15 13 20 0 23 -3 13 -9z m-48 -69 c-3 -12
-9 -22 -14 -22 -5 0 -3 11 3 25 13 30 20 28 11 -3z m-129 -118 c3 -8 2 -12 -4
-9 -6 3 -10 10 -10 16 0 14 7 11 14 -7z m-32 -16 c-7 -7 -12 -8 -12 -2 0 14
12 26 19 19 2 -3 -1 -11 -7 -17z m-80 -51 c3 -14 0 -24 -8 -24 -6 0 -10 7 -9
16 2 9 4 19 4 24 2 15 9 6 13 -16z m62 15 c3 -5 -1 -9 -9 -9 -8 0 -12 4 -9 9
3 4 7 8 9 8 2 0 6 -4 9 -8z m-155 -135 c-9 -7 -18 -19 -22 -27 -4 -12 -6 -12
-6 2 -1 9 7 22 17 27 24 14 30 13 11 -2z m-129 -63 c0 -8 -6 -14 -13 -14 -7 0
-13 8 -13 19 0 11 5 17 13 14 7 -3 13 -11 13 -19z m-84 -82 c-3 -3 -6 0 -6 8
0 10 -3 10 -15 0 -13 -11 -14 -10 -9 6 6 16 5 17 -7 6 -17 -15 -4 -41 32 -60
l24 -14 -25 6 c-14 3 -28 6 -32 6 -5 0 -8 7 -8 15 0 8 -9 19 -20 25 -11 6 -17
16 -14 25 4 8 10 12 15 9 5 -3 7 -11 3 -17 -3 -7 5 0 18 14 l23 26 13 -24 c8
-14 11 -27 8 -31z m22 -7 c-6 -13 -16 -21 -21 -18 -8 5 -7 8 1 11 7 2 12 10
12 18 0 8 4 14 10 14 6 0 5 -10 -2 -25z m57 -14 c-3 -6 -11 -8 -17 -5 -6 4 -5
9 3 15 16 10 23 4 14 -10z m-242 -163 c-4 -7 -6 -21 -5 -30 2 -10 -1 -18 -7
-18 -13 0 -10 43 4 52 15 11 17 10 8 -4z m-122 -125 c-9 -15 -10 -14 -7 7 6
35 7 37 12 23 3 -7 1 -20 -5 -30z m-77 2 c-4 -8 -11 -15 -16 -15 -6 0 -5 6 2
15 7 8 14 15 16 15 2 0 1 -7 -2 -15z m104 -30 c-3 -3 -9 2 -12 12 -6 14 -5 15
5 6 7 -7 10 -15 7 -18z m-115 -14 c2 -10 1 -24 -3 -30 -4 -7 -7 1 -8 18 -1 35
3 40 11 12z m37 15 c0 -2 -7 -6 -15 -10 -8 -3 -15 -1 -15 4 0 6 7 10 15 10 8
0 15 -2 15 -4z m48 -37 c-3 -8 -7 -3 -11 10 -4 17 -3 21 5 13 5 -5 8 -16 6
-23z m-162 -44 c-3 -8 0 -15 7 -16 9 0 9 -2 -1 -6 -6 -2 -10 -8 -7 -13 3 -4
-6 -15 -20 -24 -29 -19 -36 -1 -7 20 9 7 18 17 18 23 1 6 2 16 3 21 0 6 4 10
7 10 3 0 4 -7 0 -15z m59 -7 c17 -3 16 -5 -7 -9 -20 -5 -28 -2 -31 13 -4 14
-2 16 6 10 7 -6 21 -12 32 -14z m-118 -33 c0 -8 -4 -15 -9 -15 -10 0 -11 14
-1 23 9 10 10 9 10 -8z m23 -59 c-7 -7 -13 -7 -20 0 -6 6 -3 10 10 10 13 0 16
-4 10 -10z m-30 -13 c3 -3 -5 -3 -18 0 -14 3 -25 0 -31 -11 -9 -15 -10 -14 -8
4 1 18 6 21 26 17 14 -2 28 -7 31 -10z m-28 -58 c3 0 8 -2 10 -5 2 -3 1 -4 -1
-3 -2 2 -10 -2 -18 -9 -7 -6 -16 -8 -20 -4 -3 3 -1 6 7 6 10 0 10 4 -1 17 -12
15 -12 16 1 8 8 -6 18 -10 22 -10z m-167 -95 c3 -5 1 -10 -4 -10 -6 0 -11 5
-11 10 0 6 2 10 4 10 3 0 8 -4 11 -10z m-22 -57 c-5 -11 -8 -12 -13 -2 -5 7
-6 19 -3 26 5 11 8 12 13 2 5 -7 6 -19 3 -26z m-80 -71 c-3 -12 -9 -22 -14
-22 -5 0 -3 11 3 25 13 30 20 28 11 -3z m37 24 c0 -3 -4 -8 -10 -11 -5 -3 -10
-1 -10 4 0 6 5 11 10 11 6 0 10 -2 10 -4z m-90 -22 c0 -8 -4 -12 -10 -9 -5 3
-10 10 -10 16 0 5 5 9 10 9 6 0 10 -7 10 -16z m-50 -88 c0 -3 -4 -8 -10 -11
-5 -3 -10 -1 -10 4 0 6 5 11 10 11 6 0 10 -2 10 -4z m-250 -171 c0 -8 -4 -15
-10 -15 -5 0 -7 7 -4 15 4 8 8 15 10 15 2 0 4 -7 4 -15z m-84 -100 c1 -14 -2
-25 -6 -25 -6 0 -7 36 -1 48 4 7 6 -1 7 -23z m-186 -161 c0 -8 -19 -13 -24 -6
-3 5 1 9 9 9 8 0 15 -2 15 -3z m15 -34 c3 -5 2 -17 -3 -26 -8 -14 -10 -12 -14
10 -5 26 5 35 17 16z m-35 -40 c6 -11 8 -20 6 -20 -3 0 -10 9 -16 20 -6 11 -8
20 -6 20 3 0 10 -9 16 -20z m60 16 c0 -3 -4 -8 -10 -11 -5 -3 -10 -1 -10 4 0
6 5 11 10 11 6 0 10 -2 10 -4z m-130 -73 c0 -2 -8 1 -19 6 -10 6 -22 7 -26 3
-5 -4 -5 -1 -1 6 4 6 2 12 -3 12 -6 0 -11 5 -11 10 0 6 14 1 30 -12 17 -12 30
-23 30 -25z m27 25 c-3 -8 -6 -5 -6 6 -1 11 2 17 5 13 3 -3 4 -12 1 -19z m-40
-64 c-3 -3 -12 -4 -19 -1 -8 3 -5 6 6 6 11 1 17 -2 13 -5z m-37 -25 c0 -4 -7
-6 -15 -3 -8 4 -15 10 -15 15 0 4 7 6 15 3 8 -4 15 -10 15 -15z m-125 1 c-3
-5 -12 -10 -18 -10 -7 0 -6 4 3 10 19 12 23 12 15 0z m80 -30 c-3 -5 -12 -10
-18 -10 -7 0 -6 4 3 10 19 12 23 12 15 0z m-29 -52 c3 -4 -1 -5 -10 -4 -8 1
-18 5 -22 8 -3 4 1 5 10 4 8 -1 18 -5 22 -8z m-106 -98 c0 -5 -2 -10 -4 -10
-3 0 -8 5 -11 10 -3 6 -1 10 4 10 6 0 11 -4 11 -10z m-94 -52 c5 -7 3 -8 -6
-3 -10 6 -12 4 -7 -8 3 -10 2 -17 -3 -17 -11 0 -13 23 -3 33 9 9 11 9 19 -5z
m-73 -28 c-10 -11 -19 -20 -21 -20 -1 0 2 9 8 20 6 11 15 20 20 20 6 0 2 -9
-7 -20z m-109 -145 c-7 -16 -24 -21 -24 -6 0 8 7 13 27 20 1 1 0 -6 -3 -14z
m-37 -31 c-3 -3 -12 -4 -19 -1 -8 3 -5 6 6 6 11 1 17 -2 13 -5z m-7 -38 c0 -2
-7 -7 -16 -10 -8 -3 -12 -2 -9 4 6 10 25 14 25 6z m4467 -77 c237 -20 426 -88
563 -202 158 -130 234 -290 234 -487 0 -227 -87 -399 -260 -512 l-64 -42 55
-22 c141 -58 266 -168 324 -286 99 -201 72 -469 -67 -670 -37 -53 -141 -153
-205 -197 -65 -44 -196 -104 -282 -130 -176 -51 -203 -53 -817 -58 l-578 -5 0
1311 0 1311 484 0 c267 0 542 -5 613 -11z m3366 -9 c251 -17 397 -53 562 -138
122 -62 244 -183 297 -292 58 -119 72 -185 72 -345 1 -159 -13 -222 -72 -345
-47 -96 -183 -237 -289 -300 -216 -126 -509 -186 -881 -178 l-172 3 0 -507 0
-508 -240 0 -240 0 0 1310 0 1310 408 0 c224 0 474 -5 555 -10z m-8303 -184
c0 -3 -4 -8 -10 -11 -5 -3 -10 -1 -10 4 0 6 5 11 10 11 6 0 10 -2 10 -4z m-55
-86 c-3 -5 -1 -11 5 -15 5 -3 10 -12 10 -18 0 -7 -4 -6 -11 3 -8 12 -9 10 -7
-9 2 -15 -3 -26 -12 -28 -12 -4 -13 -3 -1 5 11 8 9 11 -8 17 -15 4 -20 13 -17
28 3 12 5 22 5 22 11 6 40 1 36 -5z m-75 -170 c0 -5 -5 -10 -11 -10 -5 0 -7 5
-4 10 3 6 8 10 11 10 2 0 4 -4 4 -10z m-43 -42 c-3 -8 -6 -5 -6 6 -1 11 2 17
5 13 3 -3 4 -12 1 -19z m-71 -10 c4 -7 3 -8 -4 -4 -7 4 -12 2 -12 -5 0 -7 -3
-10 -6 -6 -6 5 3 27 11 27 2 0 7 -5 11 -12z m-46 -95 c0 -8 5 -11 12 -7 7 4 8
3 4 -4 -10 -17 -26 -15 -26 4 0 8 -4 12 -10 9 -5 -3 -10 1 -10 9 0 10 6 13 15
10 8 -4 15 -13 15 -21z m-110 -22 c0 -4 -9 -7 -20 -7 -11 0 -20 6 -20 12 0 7
8 10 20 7 11 -3 20 -8 20 -12z m-5 -109 c-6 -7 -34 11 -29 19 3 5 11 3 19 -4
7 -6 12 -13 10 -15z"/>
<path d="M4790 5963 c-1 -43 -3 -194 -6 -335 l-6 -258 254 0 c325 0 400 9 498
58 86 42 129 94 156 190 35 118 -7 262 -93 328 -99 75 -209 94 -560 94 l-243
0 0 -77z"/>
<path d="M4782 4598 l3 -363 145 -3 c206 -4 458 13 555 38 159 41 266 120 301
222 23 65 25 188 5 238 -40 97 -114 161 -236 201 -67 22 -87 23 -423 27 l-352
4 2 -364z"/>
<path d="M8280 5642 l0 -392 25 -6 c13 -3 120 -4 237 -2 238 5 314 18 434 73
85 39 141 87 176 152 76 142 57 334 -43 431 -19 19 -59 47 -90 62 -96 49 -177
61 -471 67 l-268 6 0 -391z"/>
<path d="M4674 10185 c1 -8 4 -16 7 -17 2 -2 3 -1 2 1 -2 2 2 10 8 18 9 10 8
13 -4 13 -8 0 -14 -7 -13 -15z"/>
<path d="M4724 10159 c-3 -6 -1 -16 5 -22 8 -8 11 -5 11 11 0 24 -5 28 -16 11z"/>
<path d="M4620 10140 c0 -5 5 -10 11 -10 5 0 7 5 4 10 -3 6 -8 10 -11 10 -2 0
-4 -4 -4 -10z"/>
<path d="M4595 10090 c-3 -5 -1 -10 4 -10 6 0 11 5 11 10 0 6 -2 10 -4 10 -3
0 -8 -4 -11 -10z"/>
<path d="M4550 10070 c-9 -6 -10 -10 -3 -10 6 0 15 5 18 10 8 12 4 12 -15 0z"/>
<path d="M4505 10029 c-3 -4 2 -6 10 -5 21 3 28 13 10 13 -9 0 -18 -4 -20 -8z"/>
<path d="M4500 10003 c0 -5 5 -15 10 -23 8 -12 10 -11 10 8 0 12 -4 22 -10 22
-5 0 -10 -3 -10 -7z"/>
<path d="M4445 9980 c-3 -5 -13 -7 -23 -4 -14 5 -14 4 -3 -4 14 -10 51 0 51
13 0 9 -19 5 -25 -5z"/>
<path d="M4365 9919 c-2 -3 8 -5 23 -4 15 1 32 -2 38 -6 6 -5 11 -4 11 4 0 13
-65 19 -72 6z"/>
<path d="M4397 9889 c7 -7 15 -10 18 -7 3 3 -2 9 -12 12 -14 6 -15 5 -6 -5z"/>
<path d="M4363 9869 c-2 -23 3 -25 10 -4 4 8 3 16 -1 19 -4 3 -9 -4 -9 -15z"/>
<path d="M4335 9860 c3 -5 8 -10 11 -10 2 0 4 5 4 10 0 6 -5 10 -11 10 -5 0
-7 -4 -4 -10z"/>
<path d="M4148 9743 c7 -3 16 -2 19 1 4 3 -2 6 -13 5 -11 0 -14 -3 -6 -6z"/>
<path d="M4230 9715 c9 -11 9 -15 1 -15 -7 0 -9 -5 -5 -11 4 -8 9 -7 15 2 12
20 11 26 -7 33 -14 5 -15 4 -4 -9z"/>
<path d="M4166 9655 c-3 -8 -1 -15 4 -15 6 0 10 7 10 15 0 8 -2 15 -4 15 -2 0
-6 -7 -10 -15z"/>
<path d="M4044 9618 c-5 -8 -2 -9 9 -5 13 5 17 1 17 -15 0 -15 3 -19 10 -12
13 13 2 44 -15 44 -8 0 -17 -5 -21 -12z"/>
<path d="M4120 9624 c0 -13 18 -39 24 -34 2 3 -2 14 -10 24 -8 11 -14 16 -14
10z"/>
<path d="M4016 9561 c-3 -5 1 -14 8 -20 12 -10 13 -8 9 8 -6 23 -9 25 -17 12z"/>
<path d="M4076 9551 c-3 -5 1 -11 9 -15 8 -3 15 -1 15 4 0 13 -18 22 -24 11z"/>
<path d="M4000 9530 c0 -5 5 -10 11 -10 5 0 7 5 4 10 -3 6 -8 10 -11 10 -2 0
-4 -4 -4 -10z"/>
<path d="M3901 9487 c-13 -21 -12 -21 5 -5 10 10 16 20 13 22 -3 3 -11 -5 -18
-17z"/>
<path d="M3930 9500 c0 -5 5 -10 11 -10 5 0 7 5 4 10 -3 6 -8 10 -11 10 -2 0
-4 -4 -4 -10z"/>
<path d="M3993 9503 c-7 -2 -13 -9 -13 -15 0 -7 5 -7 13 1 8 6 18 7 22 3 5 -4
5 -1 1 6 -4 6 -8 12 -9 11 -1 0 -8 -3 -14 -6z"/>
<path d="M3920 9459 c0 -5 -6 -7 -12 -3 -8 5 -7 1 2 -10 21 -26 24 -60 5 -52
-9 3 -13 2 -10 -4 9 -15 32 -12 39 5 3 8 0 15 -6 15 -6 0 -8 3 -5 7 4 3 2 12
-4 20 -9 9 -8 13 0 13 6 0 11 5 11 10 0 6 -4 10 -10 10 -5 0 -10 -5 -10 -11z"/>
<path d="M3740 9299 c0 -5 5 -7 10 -4 6 3 10 8 10 11 0 2 -4 4 -10 4 -5 0 -10
-5 -10 -11z"/>
<path d="M3681 9264 c0 -11 3 -14 6 -6 3 7 2 16 -1 19 -3 4 -6 -2 -5 -13z"/>
<path d="M3650 9219 c0 -5 5 -9 10 -9 6 0 12 0 15 0 14 0 8 13 -7 16 -10 1
-18 -2 -18 -7z"/>
<path d="M3619 9188 c-8 -27 -6 -38 5 -29 7 6 16 8 20 4 4 -4 4 0 0 10 -5 14
-22 24 -25 15z"/>
<path d="M3580 9159 c0 -5 5 -7 10 -4 6 3 10 8 10 11 0 2 -4 4 -10 4 -5 0 -10
-5 -10 -11z"/>
<path d="M3486 9102 c-3 -5 1 -9 9 -9 8 0 12 4 9 9 -3 4 -7 8 -9 8 -2 0 -6 -4
-9 -8z"/>
<path d="M3408 9033 c-29 -7 -21 -21 8 -15 19 3 25 1 20 -7 -4 -6 0 -11 10
-11 16 0 16 1 -1 20 -10 11 -19 19 -19 19 -1 -1 -9 -3 -18 -6z"/>
<path d="M3472 9018 c2 -5 8 -9 13 -9 5 0 11 4 13 9 1 5 -4 9 -13 9 -9 0 -14
-4 -13 -9z"/>
<path d="M3417 8950 c2 -22 -2 -40 -7 -40 -6 0 -10 4 -10 10 0 5 -7 7 -15 4
-13 -5 -13 -9 -3 -23 11 -14 10 -14 -7 1 -24 20 -41 12 -41 -19 0 -24 10 -30
21 -12 4 6 13 8 21 5 7 -3 18 3 23 12 8 13 10 14 11 3 0 -27 17 3 23 41 4 23
1 41 -7 47 -10 8 -12 1 -9 -29z"/>
<path d="M3451 8974 c7 -8 6 -14 -1 -19 -5 -3 -10 -12 -9 -18 0 -9 2 -9 5 0 3
7 11 11 17 9 7 -1 8 -1 4 2 -5 2 0 13 9 23 16 18 16 19 -9 17 -19 -2 -23 -6
-16 -14z"/>
<path d="M3366 8966 c6 -16 -4 -21 -36 -16 -12 1 -12 -1 -3 -10 7 -8 19 -10
30 -5 10 5 21 7 26 7 13 -3 8 15 -8 28 -13 11 -14 10 -9 -4z"/>
<path d="M3300 8919 c0 -5 -5 -7 -12 -3 -7 4 -8 3 -4 -4 10 -16 23 -15 30 3 3
8 1 15 -4 15 -6 0 -10 -5 -10 -11z"/>
<path d="M3226 8895 c-3 -8 -1 -17 3 -20 5 -3 11 2 15 10 3 8 1 17 -3 20 -5 3
-11 -2 -15 -10z"/>
<path d="M3233 8848 c-4 -7 -1 -8 7 -3 10 6 12 3 7 -11 -7 -18 -7 -18 8 0 8
11 15 15 15 9 0 -6 9 -13 19 -16 14 -3 19 0 18 14 -1 12 -5 15 -13 9 -6 -6
-14 -7 -18 -3 -11 12 -36 12 -43 1z"/>
<path d="M3135 8780 c-3 -5 0 -10 7 -10 11 0 10 -2 0 -9 -11 -7 -10 -9 3 -14
9 -4 15 -12 14 -19 -3 -28 2 -37 17 -31 12 4 13 8 3 13 -6 5 -10 14 -7 22 7
17 -28 63 -37 48z"/>
<path d="M3074 8728 c-3 -4 -2 -8 1 -8 3 0 -3 -10 -15 -22 -11 -12 -18 -23
-15 -26 2 -2 16 9 30 24 26 28 27 28 41 9 9 -12 11 -21 4 -23 -14 -5 -13 -21
4 -37 22 -23 39 4 22 36 -7 13 -11 31 -8 39 3 13 2 13 -7 0 -9 -13 -15 -9 -13
10 1 9 -39 7 -44 -2z"/>
<path d="M3085 8681 c-3 -5 -1 -12 5 -16 5 -3 10 1 10 9 0 18 -6 21 -15 7z"/>
<path d="M3010 8631 c0 -6 4 -13 10 -16 6 -3 7 1 4 9 -7 18 -14 21 -14 7z"/>
<path d="M2920 8616 c0 -2 8 -10 18 -17 15 -13 16 -12 3 4 -13 16 -21 21 -21
13z"/>
<path d="M2883 8593 c-7 -2 -13 -9 -13 -15 0 -7 5 -6 14 1 11 9 20 9 35 2 30
-16 40 -12 11 4 -27 16 -29 16 -47 8z"/>
<path d="M3020 8580 c0 -19 3 -21 12 -12 9 9 9 15 0 24 -9 9 -12 7 -12 -12z"/>
<path d="M2839 8553 c-13 -16 -12 -17 4 -4 16 13 21 21 13 21 -2 0 -10 -8 -17
-17z"/>
<path d="M2790 8467 c0 -7 5 -19 10 -27 8 -12 11 -13 22 -2 7 8 9 13 3 12 -21
-4 -30 1 -17 9 11 7 11 9 -2 14 -9 4 -16 1 -16 -6z"/>
<path d="M2860 8450 c0 -5 5 -10 11 -10 5 0 7 5 4 10 -3 6 -8 10 -11 10 -2 0
-4 -4 -4 -10z"/>
<path d="M2737 8399 c7 -7 15 -10 18 -7 3 3 -2 9 -12 12 -14 6 -15 5 -6 -5z"/>
<path d="M2683 8355 c1 -5 -7 -9 -18 -8 -11 1 -14 0 -7 -3 6 -3 12 -13 13 -22
0 -13 3 -11 11 6 6 13 17 21 23 18 6 -2 12 1 12 8 0 6 -8 12 -18 12 -10 0 -17
-5 -16 -11z"/>
<path d="M2588 8248 c2 -10 6 -18 7 -18 1 0 5 8 7 18 3 11 0 19 -7 19 -7 0
-10 -8 -7 -19z"/>
<path d="M2401 8094 c0 -11 3 -14 6 -6 3 7 2 16 -1 19 -3 4 -6 -2 -5 -13z"/>
<path d="M2345 8040 c-3 -5 1 -10 10 -10 9 0 13 5 10 10 -3 6 -8 10 -10 10 -2
0 -7 -4 -10 -10z"/>
<path d="M2255 7969 c-4 -6 -5 -12 -2 -15 2 -3 7 2 10 11 7 17 1 20 -8 4z"/>
<path d="M2182 7889 c9 -5 15 -15 12 -23 -3 -7 2 -13 10 -13 8 0 12 6 8 15 -4
11 -1 14 12 9 10 -4 15 -3 11 3 -3 6 -1 10 6 10 7 0 10 3 7 6 -4 3 -15 1 -27
-5 -13 -7 -22 -8 -26 -1 -3 5 -12 10 -18 10 -7 0 -4 -5 5 -11z"/>
<path d="M2230 7851 c0 -6 4 -12 8 -15 5 -3 9 1 9 9 0 8 -4 15 -9 15 -4 0 -8
-4 -8 -9z"/>
<path d="M2076 7841 c-19 -7 -19 -8 0 -13 13 -3 21 0 21 8 0 8 -1 14 -1 13 -1
0 -10 -4 -20 -8z"/>
<path d="M2107 7773 c-3 -5 6 -9 19 -9 13 -1 24 2 24 7 0 11 -37 12 -43 2z"/>
<path d="M2009 7752 c-11 -14 -11 -15 0 -5 7 6 20 9 27 6 8 -3 14 -3 14 0 0
14 -30 14 -41 -1z"/>
<path d="M2120 7750 c0 -5 5 -10 11 -10 5 0 7 5 4 10 -3 6 -8 10 -11 10 -2 0
-4 -4 -4 -10z"/>
<path d="M2003 7709 c6 -10 14 -16 19 -13 11 7 -1 31 -16 31 -11 0 -12 -4 -3
-18z"/>
<path d="M1975 7701 c-3 -5 -2 -12 3 -15 5 -3 9 1 9 9 0 17 -3 19 -12 6z"/>
<path d="M1830 7626 c0 -8 26 -36 33 -36 3 0 8 7 11 16 3 9 2 12 -5 9 -5 -4
-16 -1 -24 5 -8 7 -15 9 -15 6z"/>
<path d="M1758 7573 c7 -3 16 -2 19 1 4 3 -2 6 -13 5 -11 0 -14 -3 -6 -6z"/>
<path d="M1811 7564 c0 -11 3 -14 6 -6 3 7 2 16 -1 19 -3 4 -6 -2 -5 -13z"/>
<path d="M1850 7570 c18 -12 30 -13 30 -2 0 4 -10 9 -22 9 -18 2 -20 0 -8 -7z"/>
<path d="M1850 7550 c0 -6 7 -10 15 -10 8 0 15 2 15 4 0 2 -7 6 -15 10 -8 3
-15 1 -15 -4z"/>
<path d="M1820 7529 c0 -7 -7 -17 -17 -24 -11 -8 -13 -14 -5 -19 7 -4 12 -1
12 6 0 11 2 11 9 0 5 -9 8 -3 9 17 0 17 -1 31 -4 31 -2 0 -4 -5 -4 -11z"/>
<path d="M1725 7430 c3 -5 8 -10 11 -10 2 0 4 5 4 10 0 6 -5 10 -11 10 -5 0
-7 -4 -4 -10z"/>
<path d="M1687 7410 c-3 -11 -2 -20 3 -20 4 0 10 9 13 20 3 11 2 20 -3 20 -4
0 -10 -9 -13 -20z"/>
<path d="M1606 7402 c-3 -5 1 -9 9 -9 8 0 12 4 9 9 -3 4 -7 8 -9 8 -2 0 -6 -4
-9 -8z"/>
<path d="M1545 7300 c3 -5 8 -10 11 -10 2 0 4 5 4 10 0 6 -5 10 -11 10 -5 0
-7 -4 -4 -10z"/>
<path d="M1429 7223 c0 -5 -2 -16 -4 -25 -3 -14 0 -15 16 -5 11 7 15 13 9 15
-6 2 -8 8 -4 13 3 5 0 9 -5 9 -6 0 -11 -3 -12 -7z"/>
<path d="M1491 7161 c-8 -5 -21 -7 -30 -4 -10 4 -9 0 4 -10 11 -8 20 -15 20
-14 1 1 7 10 14 20 15 19 13 21 -8 8z"/>
<path d="M1378 7148 c14 -7 26 -8 32 -2 5 5 -4 10 -23 11 -30 1 -31 1 -9 -9z"/>
<path d="M1358 7113 c7 -3 16 -2 19 1 4 3 -2 6 -13 5 -11 0 -14 -3 -6 -6z"/>
<path d="M1335 7061 c-3 -5 -1 -12 5 -16 5 -3 10 1 10 9 0 18 -6 21 -15 7z"/>
<path d="M1244 7039 c-3 -6 0 -15 7 -20 19 -12 29 -11 29 1 0 6 -7 10 -16 10
-8 0 -12 5 -9 10 3 6 4 10 1 10 -3 0 -8 -5 -12 -11z"/>
<path d="M1185 7000 c-3 -5 -3 -10 1 -10 4 0 -1 -7 -12 -16 -18 -15 -18 -15 0
-6 11 5 21 17 22 26 3 18 -2 21 -11 6z"/>
<path d="M1137 6949 c7 -7 15 -10 18 -7 3 3 -2 9 -12 12 -14 6 -15 5 -6 -5z"/>
<path d="M1106 6929 c2 -4 -2 -10 -8 -12 -8 -4 -9 -6 -2 -6 6 -1 17 5 23 12 8
10 7 14 -4 14 -8 0 -12 -4 -9 -8z"/>
<path d="M1141 6914 c0 -11 3 -14 6 -6 3 7 2 16 -1 19 -3 4 -6 -2 -5 -13z"/>
<path d="M1135 6880 c-3 -6 1 -7 9 -4 18 7 21 14 7 14 -6 0 -13 -4 -16 -10z"/>
<path d="M1115 6841 c-3 -5 -1 -12 5 -16 5 -3 10 1 10 9 0 18 -6 21 -15 7z"/>
<path d="M1022 6820 c3 -8 -2 -23 -10 -33 -15 -16 -17 -16 -39 5 -23 22 -58
34 -47 17 3 -5 9 -7 14 -4 18 11 22 -19 5 -32 -11 -7 -14 -13 -7 -13 7 0 10
-12 7 -31 -3 -23 -1 -29 7 -21 6 6 11 24 12 41 0 17 5 31 9 31 5 0 7 -7 4 -14
-4 -11 -1 -13 11 -9 15 6 15 5 3 -11 -13 -16 -12 -16 17 1 25 14 30 23 28 46
-2 15 -7 31 -11 35 -4 4 -5 0 -3 -8z m8 -44 c0 -3 -4 -8 -10 -11 -5 -3 -10 -1
-10 4 0 6 5 11 10 11 6 0 10 -2 10 -4z"/>
<path d="M866 6732 c-3 -5 1 -9 9 -9 8 0 12 4 9 9 -3 4 -7 8 -9 8 -2 0 -6 -4
-9 -8z"/>
<path d="M900 6716 c0 -2 7 -7 16 -10 8 -3 12 -2 9 4 -6 10 -25 14 -25 6z"/>
<path d="M810 6669 c0 -13 28 -18 33 -6 3 7 -3 13 -14 13 -11 0 -19 -3 -19 -7z"/>
<path d="M795 6630 c-3 -5 -1 -10 4 -10 6 0 11 5 11 10 0 6 -2 10 -4 10 -3 0
-8 -4 -11 -10z"/>
<path d="M870 6630 c0 -5 5 -10 11 -10 5 0 7 5 4 10 -3 6 -8 10 -11 10 -2 0
-4 -4 -4 -10z"/>
<path d="M815 6580 c-4 -6 -10 -8 -15 -5 -5 3 -12 0 -16 -6 -5 -9 0 -10 17 -6
13 4 30 7 37 7 6 0 12 5 12 10 0 13 -27 13 -35 0z"/>
<path d="M743 6544 c0 -8 4 -14 9 -14 4 0 8 6 8 13 0 8 4 7 11 -3 8 -12 10
-12 7 -1 -5 19 -35 23 -35 5z"/>
<path d="M710 6517 c0 -10 8 -17 18 -17 9 0 13 4 7 8 -5 4 -13 11 -17 16 -5 5
-8 2 -8 -7z"/>
<path d="M708 6479 c-4 -11 2 -16 28 -17 27 -2 32 1 28 13 -3 8 -10 15 -16 15
-5 0 -6 -4 -3 -10 3 -5 0 -10 -9 -10 -8 0 -16 5 -18 12 -3 8 -6 7 -10 -3z"/>
<path d="M330 6180 c-8 -5 -10 -10 -3 -10 7 0 9 -9 6 -22 -3 -13 -3 -21 0 -18
5 5 18 60 14 60 -1 0 -9 -5 -17 -10z"/>
<path d="M93 6051 c0 -11 5 -18 9 -15 4 3 5 11 1 19 -7 21 -12 19 -10 -4z"/>
<path d="M41 6004 c0 -11 3 -14 6 -6 3 7 2 16 -1 19 -3 4 -6 -2 -5 -13z"/>
<path d="M136 6012 c-3 -5 1 -9 9 -9 8 0 12 4 9 9 -3 4 -7 8 -9 8 -2 0 -6 -4
-9 -8z"/>
<path d="M95 5997 c-22 -24 -25 -36 -14 -43 7 -4 9 -3 6 3 -7 11 16 37 25 28
2 -3 5 2 5 10 0 18 -8 19 -22 2z"/>
<path d="M120 5970 c-9 -6 -10 -10 -3 -10 6 0 15 5 18 10 8 12 4 12 -15 0z"/>
<path d="M45 5930 c-3 -6 1 -7 9 -4 18 7 21 14 7 14 -6 0 -13 -4 -16 -10z"/>
<path d="M10 5880 c0 -5 7 -10 16 -10 8 0 12 5 9 10 -3 6 -10 10 -16 10 -5 0
-9 -4 -9 -10z"/>
</g>
</svg>
