<?xml version="1.0" encoding="UTF-8"?>
<svg version="1.1" xmlns="http://www.w3.org/2000/svg" width="1024" height="1024">
<path d="M0 0 C337.92 0 675.84 0 1024 0 C1024 337.92 1024 675.84 1024 1024 C686.08 1024 348.16 1024 0 1024 C0 686.08 0 348.16 0 0 Z " fill="#0281FF" transform="translate(0,0)"/>
<path d="M0 0 C145.66151318 0 145.66151318 0 170.41796875 24.39453125 C171.27003906 25.25433594 172.12210938 26.11414063 173 27 C173.59425781 27.56074219 174.18851563 28.12148438 174.80078125 28.69921875 C185.88943039 40.08675331 189.3874913 56.07593066 189.29321289 71.30249023 C189.04804493 86.1028931 184.60275903 101.10541324 174.16796875 112.11328125 C161.65838509 123 161.65838509 123 157 123 C157 123.66 157 124.32 157 125 C158.2375 125.350625 159.475 125.70125 160.75 126.0625 C177.67935134 131.77648829 188.33246781 143.04442504 196.8125 158.25 C202.72471275 171.94144006 202.19335527 191.08515287 197.25390625 205.04296875 C196.84011719 206.01878906 196.42632813 206.99460937 196 208 C195.57589844 209.02738281 195.15179687 210.05476562 194.71484375 211.11328125 C186.23557492 229.70153911 169.53483614 243.77258311 150.63378906 250.98608398 C148.76191841 251.67410362 146.881016 252.33739184 145 253 C143.92878906 253.38027344 142.85757813 253.76054688 141.75390625 254.15234375 C97.8924026 268.6633281 41.51048014 261 0 261 C0 174.87 0 88.74 0 0 Z " fill="#FDFEFF" transform="translate(430,380)"/>
<path d="M0 0 C22.44 0 44.88 0 68 0 C71.691875 10.250625 75.38375 20.50125 79.1875 31.0625 C80.92036255 35.86953491 80.92036255 35.86953491 82.68823242 40.77368164 C84.12561035 44.76843262 84.12561035 44.76843262 84.80366516 46.65428162 C85.26529931 47.93718845 85.72760824 49.21985263 86.19050598 50.50230408 C89.20968616 58.8688068 92.11581786 67.25972882 94.87294006 75.71655273 C95.91007389 78.73801959 97.06368572 81.65749958 98.328125 84.58984375 C102.24552814 93.74318315 105.4343951 103.17905137 108.75 112.5625 C109.10349518 113.56011353 109.45699036 114.55772705 109.82119751 115.58557129 C117.37230052 136.90105366 124.86647808 158.22476556 131 180 C131.37253906 181.22203125 131.74507812 182.4440625 132.12890625 183.703125 C133 187 133 187 133 191 C133.66 191 134.32 191 135 191 C135.10699219 190.04480469 135.21398437 189.08960938 135.32421875 188.10546875 C136.0101245 183.36099118 137.39275979 178.88227604 138.8125 174.3125 C139.12179443 173.31234863 139.43108887 172.31219727 139.74975586 171.28173828 C140.82083787 167.85046619 141.90751605 164.42451699 143 161 C143.37962891 159.80906738 143.75925781 158.61813477 144.15039062 157.39111328 C152.91020522 130.1316741 162.75515437 103.25094645 172.52340698 76.34140015 C177.39786337 62.91265774 182.24663985 49.47469376 187.09147644 36.03524113 C188.56002728 31.96153386 190.029317 27.88809438 191.49942303 23.81494808 C192.18932238 21.90342642 192.87906293 19.99184754 193.56874084 18.08024597 C194.41032206 15.74764778 195.25213659 13.41513375 196.09422302 11.0827179 C196.46443069 10.05623642 196.83463837 9.02975494 197.21606445 7.97216797 C197.53831497 7.07915985 197.86056549 6.18615173 198.19258118 5.26608276 C198.81548118 3.51786619 199.41312134 1.76063598 200 0 C222.44 0 244.88 0 268 0 C268 86.13 268 172.26 268 261 C252.16 261 236.32 261 220 261 C219.9773416 240.8751561 219.95895624 220.75032267 219.94818783 200.62546921 C219.94305282 191.27911672 219.936064 181.93277278 219.92456055 172.58642578 C219.91452766 164.43093174 219.9081263 156.2754439 219.90591151 148.11994386 C219.90461887 143.8100751 219.90162634 139.50022405 219.89426994 135.19036102 C219.84028151 102.32522767 219.84028151 102.32522767 220.77514648 87.75964355 C221.09450218 82.41988449 221.11331301 77.09709202 221.0625 71.75 C221.05573242 70.31140625 221.05573242 70.31140625 221.04882812 68.84375 C221.03742148 66.56242101 221.02126815 64.28125427 221 62 C220.67386719 63.05058594 220.34773437 64.10117187 220.01171875 65.18359375 C219.57035967 66.60157718 219.12895072 68.0195451 218.6875 69.4375 C218.47416016 70.12521484 218.26082031 70.81292969 218.04101562 71.52148438 C216.42604473 76.70385367 214.73395258 81.85631943 213 87 C212.59402588 88.20760986 212.18805176 89.41521973 211.76977539 90.65942383 C205.14495191 110.33351571 198.28346615 129.90101806 191.05343628 149.3605957 C190.75091949 150.17488037 190.44840271 150.98916504 190.13671875 151.828125 C189.8247757 152.66754639 189.51283264 153.50696777 189.19143677 154.37182617 C186.25184667 162.29491123 183.35169875 170.23229613 180.45703125 178.171875 C180.21304911 178.84105453 179.96906696 179.51023407 179.71769142 180.19969177 C178.46359579 183.63969612 177.20985475 187.0798296 175.95626831 190.52001953 C167.3840892 214.0435157 158.75549805 237.54391264 150 261 C139.77 261 129.54 261 119 261 C113.37521111 247.50050665 113.37521111 247.50050665 111.62255859 242.6796875 C111.22309021 241.58522308 110.82362183 240.49075867 110.41204834 239.36312866 C109.99505676 238.2120462 109.57806519 237.06096375 109.1484375 235.875 C108.69200102 234.62146085 108.23530834 233.36801497 107.77838135 232.11465454 C106.55989337 228.77032381 105.34470115 225.42480466 104.13013458 222.07904816 C102.8549065 218.56807057 101.57653378 215.05823854 100.29833984 211.54833984 C98.73125167 207.24463725 97.16440403 202.94084801 95.59890747 198.63656616 C92.26703633 189.47598425 88.92690575 180.31847975 85.578125 171.1640625 C85.15435577 170.00549744 84.73058655 168.84693237 84.29397583 167.65325928 C82.69184864 163.27359016 81.08949619 158.89400368 79.48651123 154.51464844 C74.96235014 142.15265222 70.46797766 129.78059814 66.02456665 117.38931274 C64.49819476 113.1371176 62.96775089 108.88793867 61.37548828 104.65991211 C59.32394815 99.20115489 57.41495114 93.69535453 55.5 88.1875 C54.91412109 86.51977539 54.91412109 86.51977539 54.31640625 84.81835938 C48 66.64539931 48 66.64539931 48 61 C47.34 61 46.68 61 46 61 C46.05956312 61.63684849 46.11912624 62.27369698 46.18049431 62.9298439 C48.09359588 84.16317796 48.26980729 105.26699007 48.20278788 126.57083416 C48.19006566 131.31660542 48.18909346 136.06238082 48.18673706 140.8081665 C48.18058413 149.74624829 48.16425952 158.68427965 48.14403808 167.62233949 C48.12148335 177.81867643 48.11063705 188.01501612 48.10064721 198.2113719 C48.07988582 219.14094878 48.04328964 240.07045676 48 261 C32.16 261 16.32 261 0 261 C0 174.87 0 88.74 0 0 Z " fill="#FDFEFF" transform="translate(47,379)"/>
<path d="M0 0 C118.24293785 0 118.24293785 0 140 8 C140.62438965 8.22558594 141.2487793 8.45117188 141.89208984 8.68359375 C150.60832372 11.90693853 157.79382541 16.17080144 165 22 C165.70640625 22.53109375 166.4128125 23.0621875 167.140625 23.609375 C178.61243861 32.73262835 186.63255556 47.6403997 189 62 C190.59035368 83.58287043 189.61956896 106.13734637 175.16015625 123.55078125 C160.44152737 140.3472236 141.32790128 149.87142303 119.875 155.1875 C118.88072998 155.43773926 117.88645996 155.68797852 116.86206055 155.94580078 C101.89437741 159.4812481 86.90095771 160.32177142 71.5715332 160.20581055 C69.01178367 160.18712988 66.45238986 160.18530468 63.89257812 160.18554688 C62.25260103 160.18064439 60.61262636 160.1748217 58.97265625 160.16796875 C57.83377708 160.16629951 57.83377708 160.16629951 56.67189026 160.16459656 C53.51809098 160.1359534 51.0140968 160.00469893 48 159 C48 192.66 48 226.32 48 261 C32.16 261 16.32 261 0 261 C0 174.87 0 88.74 0 0 Z " fill="#FDFEFF" transform="translate(780,381)"/>
<path d="M0 0 C13.73625 -0.0928125 13.73625 -0.0928125 27.75 -0.1875 C30.59592773 -0.21481201 33.44185547 -0.24212402 36.37402344 -0.27026367 C79.55791015 -0.51474375 79.55791015 -0.51474375 94.26953125 11.91796875 C96.10204864 13.85079236 97.56222198 15.76111399 99 18 C99.42925781 18.65355469 99.85851562 19.30710937 100.30078125 19.98046875 C104.47939975 27.63408958 104.09877084 36.79221633 102.33984375 45.12890625 C99.24541318 54.76048885 93.40116692 60.84703059 84.64453125 65.69140625 C65.98896327 74.92274343 46.24990243 74.39571579 25.9375 74.1875 C17.378125 74.125625 8.81875 74.06375 0 74 C0 49.58 0 25.16 0 0 Z " fill="#0480FF" transform="translate(478,527)"/>
<path d="M0 0 C7.425 -0.04125 14.85 -0.0825 22.5 -0.125 C24.80806641 -0.14320801 27.11613281 -0.16141602 29.49414062 -0.18017578 C68.14372509 -0.36052524 68.14372509 -0.36052524 82.28515625 11.26953125 C90.14960174 19.20563456 92.41426252 27.77697504 92.36572266 38.79296875 C92.12029045 48.59224371 89.17700762 58.06322694 82 65 C65.31198739 78.52011869 42.7911717 80.19389333 22.20019531 80.13037109 C20.10735005 80.12495432 18.01471426 80.13037977 15.921875 80.13671875 C14.57552037 80.13605878 13.22916586 80.13477931 11.8828125 80.1328125 C10.68027832 80.13168457 9.47774414 80.13055664 8.23876953 80.12939453 C5 80 5 80 0 79 C0 52.93 0 26.86 0 0 Z " fill="#0377FF" transform="translate(828,421)"/>
<path d="M0 0 C9.301875 -0.061875 18.60375 -0.12375 28.1875 -0.1875 C31.09715576 -0.21481201 34.00681152 -0.24212402 37.00463867 -0.27026367 C39.3507445 -0.27903815 41.69685495 -0.2866798 44.04296875 -0.29296875 C45.2287854 -0.30831665 46.41460205 -0.32366455 47.63635254 -0.33947754 C60.12651872 -0.34332817 73.57691702 1.48896817 83.2890625 10.0078125 C89.87895551 16.88526447 92.08744199 23.00338514 92.375 32.4375 C92.13871069 41.63130229 90.08330966 49.83888458 83.46875 56.5546875 C72.66155079 66.42853769 60.90404571 67.30903171 46.77734375 67.1953125 C45.58725708 67.19329834 44.39717041 67.19128418 43.17102051 67.18920898 C38.75980734 67.17880883 34.34864947 67.15088662 29.9375 67.125 C15.1184375 67.063125 15.1184375 67.063125 0 67 C0 44.89 0 22.78 0 0 Z " fill="#0384FF" transform="translate(478,420)"/>
</svg>
